<mxfile host="app.diagrams.net" modified="2024-07-31T02:27:03.182Z" agent="Mozilla/5.0 (Windows NT 10.0; Win64; x64) AppleWebKit/537.36 (KHTML, like Gecko) Chrome/125.0.0.0 Safari/537.36" version="24.6.4" etag="Vnz1nK0A9Sz7oVbWVlcP" type="github">
  <diagram name="第 1 页" id="owjfhsI1Mazt5A0egawm">
    <mxGraphModel>
      <root>
        <mxCell id="0" />
        <mxCell id="1" parent="0" />
      </root>
    </mxGraphModel>
  </diagram>
</mxfile>
